<?xml version="1.0" standalone="no"?>
<!DOCTYPE svg PUBLIC "-//W3C//DTD SVG 20010904//EN"
 "http://www.w3.org/TR/2001/REC-SVG-20010904/DTD/svg10.dtd">
<svg version="1.0" xmlns="http://www.w3.org/2000/svg"
 width="512.000000pt" height="512.000000pt" viewBox="0 0 512.000000 512.000000"
 preserveAspectRatio="xMidYMid meet">
<metadata>
Created by potrace 1.14, written by Peter Selinger 2001-2017
</metadata>
<g transform="translate(0.000000,512.000000) scale(0.100000,-0.100000)"
fill="#000000" stroke="none">
<path d="M1981 4999 c-24 -5 -48 -6 -52 -3 -5 3 -12 -2 -15 -10 -3 -9 -10 -13
-15 -10 -5 3 -9 0 -9 -6 0 -6 -4 -8 -10 -5 -5 3 -10 1 -10 -5 0 -6 -5 -8 -12
-4 -6 4 -8 3 -5 -3 4 -6 -6 -19 -21 -29 -15 -9 -32 -25 -39 -33 -6 -9 -15 -16
-20 -16 -4 0 -52 -45 -107 -100 -54 -55 -102 -99 -107 -98 -5 2 -5 -5 -2 -14
4 -11 3 -14 -5 -9 -7 4 -12 2 -12 -4 0 -6 -5 -8 -10 -5 -6 4 -10 3 -9 -2 4
-21 -2 -33 -17 -33 -10 0 -14 -6 -10 -15 3 -9 0 -15 -9 -15 -8 0 -15 -7 -15
-15 0 -9 -9 -19 -19 -23 -11 -4 -21 -11 -23 -17 -2 -5 -7 -9 -11 -7 -5 1 -6
-2 -3 -7 9 -13 -44 -72 -56 -64 -7 3 -8 1 -4 -5 8 -14 -88 -144 -99 -134 -5 4
-5 1 -1 -6 4 -6 0 -19 -8 -28 -9 -8 -16 -22 -16 -30 0 -9 -7 -14 -17 -12 -10
2 -18 -3 -18 -12 0 -19 -22 -57 -46 -84 -11 -11 -19 -23 -19 -26 0 -4 -9 -17
-20 -30 -11 -12 -17 -27 -14 -31 3 -5 0 -9 -5 -9 -6 0 -11 -7 -11 -16 0 -10
-6 -14 -14 -11 -9 4 -13 0 -12 -11 2 -9 -4 -23 -13 -30 -13 -11 -13 -12 -1 -7
8 4 6 -1 -5 -10 -11 -9 -20 -21 -20 -28 -1 -7 -6 -11 -13 -10 -6 2 -9 -4 -6
-12 4 -8 1 -15 -5 -15 -6 0 -10 -6 -8 -12 1 -7 -3 -12 -10 -11 -7 2 -10 -3 -7
-11 3 -7 -2 -21 -11 -29 -9 -9 -15 -19 -15 -22 0 -3 -6 -15 -13 -28 -7 -12
-28 -46 -45 -75 -18 -29 -32 -57 -32 -61 0 -5 -9 -20 -20 -33 -10 -14 -16 -28
-13 -32 3 -3 1 -6 -6 -6 -7 0 -9 -4 -6 -10 3 -5 1 -10 -4 -10 -6 0 -11 -7 -11
-15 0 -8 -5 -15 -10 -15 -6 0 -9 -3 -9 -7 4 -25 -2 -35 -18 -28 -14 5 -15 3
-6 -5 8 -9 3 -27 -22 -75 -18 -35 -30 -66 -27 -69 3 -3 0 -6 -6 -6 -5 0 -12 6
-15 13 -2 6 -4 -4 -3 -23 1 -19 -4 -41 -11 -48 -7 -8 -11 -18 -8 -23 4 -5 1
-9 -5 -9 -6 0 -8 -5 -5 -10 4 -6 1 -17 -5 -25 -7 -8 -9 -15 -4 -15 5 0 -2 -10
-16 -23 -14 -12 -21 -19 -16 -14 16 12 31 8 18 -5 -7 -7 -12 -22 -12 -35 0
-13 -5 -23 -11 -23 -6 0 -9 -9 -6 -20 3 -11 1 -20 -4 -20 -5 0 -9 5 -9 12 0 6
-3 8 -6 5 -4 -4 -1 -13 5 -21 8 -10 9 -16 1 -21 -6 -3 -8 -11 -5 -16 4 -5 2
-9 -4 -9 -5 0 -8 -9 -6 -20 2 -11 0 -20 -4 -20 -4 0 -12 -19 -18 -42 -6 -24
-12 -50 -14 -58 -2 -8 -13 -22 -24 -32 -11 -10 -15 -18 -10 -17 22 3 23 -2 10
-28 -8 -15 -12 -30 -10 -34 3 -4 -2 -10 -11 -13 -8 -3 -12 -11 -9 -16 4 -6 1
-18 -7 -27 -9 -12 -9 -15 -1 -9 19 11 15 -5 -4 -20 -13 -10 -14 -13 -4 -14 10
0 11 -3 2 -14 -6 -8 -11 -18 -10 -22 5 -23 -15 -75 -26 -70 -11 4 -13 -12 -5
-34 1 -3 1 -9 0 -15 -1 -5 -4 -21 -7 -35 -2 -13 -10 -28 -16 -32 -9 -5 -8 -8
3 -8 9 0 11 -3 5 -8 -6 -4 -10 -14 -10 -22 0 -8 -6 -21 -15 -28 -8 -8 -9 -11
-2 -7 14 7 17 -11 2 -20 -5 -3 -6 -13 -3 -22 5 -12 3 -14 -8 -8 -11 6 -11 5
-3 -4 13 -14 7 -51 -7 -51 -5 0 -5 -7 -2 -17 4 -10 2 -14 -5 -9 -6 3 -14 2
-17 -4 -4 -6 -1 -9 7 -8 9 2 12 -5 9 -22 -2 -14 -4 -35 -5 -47 0 -13 -3 -23
-6 -23 -3 0 -7 -17 -8 -37 -2 -21 -7 -42 -12 -47 -13 -13 -13 -29 0 -21 6 3 7
-1 4 -9 -3 -9 -9 -14 -13 -11 -11 6 -7 -39 4 -47 6 -5 5 -8 -3 -8 -7 0 -10 -4
-7 -10 3 -5 0 -10 -7 -10 -10 0 -9 -3 1 -9 12 -8 12 -12 2 -25 -11 -13 -11
-16 0 -16 8 0 6 -6 -7 -16 -10 -8 -13 -13 -6 -9 17 8 15 -16 -3 -41 -8 -12
-11 -24 -8 -28 4 -4 8 -20 9 -37 2 -24 0 -28 -11 -19 -10 8 -15 8 -21 -1 -4
-7 -3 -9 3 -6 16 10 34 -16 23 -33 -8 -13 -10 -13 -10 -1 0 8 -2 12 -5 9 -10
-10 7 -38 19 -31 6 3 6 1 -1 -8 -17 -17 -17 -32 0 -23 8 5 8 2 -2 -9 -7 -9
-10 -17 -7 -17 4 0 0 -7 -8 -16 -9 -8 -16 -21 -16 -27 0 -7 5 -4 11 6 5 9 15
17 21 17 7 0 6 -5 -2 -15 -9 -11 -9 -15 -1 -15 7 0 9 -5 6 -10 -4 -6 -10 -8
-15 -5 -9 5 -4 -41 6 -57 3 -4 0 -8 -7 -8 -10 0 -10 -3 -2 -11 12 -12 6 -42
-6 -35 -4 3 -8 -4 -8 -15 -1 -11 5 -19 15 -19 13 0 13 -2 -4 -16 -10 -8 -13
-12 -5 -8 10 5 12 -1 7 -32 -4 -22 -9 -54 -11 -73 -2 -18 -10 -40 -17 -49 -7
-9 -8 -13 -2 -9 6 3 11 -1 11 -9 0 -9 -6 -13 -14 -10 -9 4 -11 1 -7 -6 11 -18
14 -59 4 -53 -5 3 -6 -10 -3 -30 3 -21 1 -41 -7 -50 -9 -11 -9 -15 -1 -15 8 0
10 -8 5 -22 -12 -37 -12 -82 0 -90 6 -5 0 -8 -14 -9 -14 0 -19 -3 -12 -6 18
-7 15 -44 -5 -59 -17 -12 -16 -13 4 -9 19 3 21 1 13 -19 -6 -16 -5 -28 3 -36
9 -10 8 -12 -5 -7 -14 5 -15 3 -3 -20 7 -14 11 -32 8 -39 -3 -8 0 -14 6 -14 6
0 8 -7 4 -16 -5 -13 -7 -13 -14 -2 -6 9 -9 9 -9 1 0 -6 4 -15 10 -18 5 -3 15
-15 21 -27 8 -15 8 -19 0 -14 -6 4 -11 2 -11 -3 0 -6 5 -11 11 -11 8 0 7 -5
-1 -15 -11 -13 -10 -14 5 -8 15 5 17 3 12 -11 -4 -9 -3 -15 1 -12 4 2 17 -9
27 -25 11 -16 28 -29 38 -29 9 0 17 -5 17 -11 0 -6 6 -9 14 -6 7 3 23 -1 35
-9 12 -8 25 -13 30 -9 5 3 13 0 16 -6 4 -5 13 -8 20 -5 7 2 21 -4 31 -15 11
-12 13 -19 5 -19 -7 0 -9 -5 -5 -11 10 -16 24 10 16 30 -4 13 -3 14 9 5 8 -6
27 -10 42 -9 15 1 30 -2 33 -7 3 -4 10 -5 16 -2 7 4 8 2 4 -5 -4 -6 -13 -8
-19 -4 -8 5 -8 2 0 -9 7 -8 11 -17 8 -19 -2 -3 6 -5 20 -5 13 0 21 4 19 8 -3
4 0 8 6 8 6 0 9 4 5 9 -3 5 -1 13 5 16 6 4 9 1 8 -6 -2 -6 3 -14 11 -17 9 -3
11 0 6 8 -5 9 -4 11 3 6 9 -5 7 -15 -4 -34 l-16 -27 19 24 c14 16 22 20 27 12
4 -6 13 -11 19 -11 7 0 4 5 -5 11 -10 5 -18 15 -18 21 0 7 4 7 13 1 18 -14 67
-15 67 -1 0 7 6 3 14 -8 14 -18 15 -18 22 0 7 17 8 17 20 -5 7 -13 10 -27 8
-31 -3 -5 -1 -8 3 -8 5 0 14 10 22 22 13 21 13 22 -2 9 -10 -7 -17 -9 -17 -3
0 14 28 23 36 11 3 -5 0 -18 -8 -27 -12 -15 -11 -16 4 -4 9 8 22 11 28 7 5 -3
15 4 20 17 10 23 10 23 7 -3 -2 -17 1 -26 10 -26 8 0 11 7 9 14 -10 24 24 27
40 4 9 -12 20 -18 26 -15 7 5 9 1 5 -9 -9 -23 0 -21 13 2 9 17 7 19 -9 16 -14
-3 -18 1 -14 12 5 12 7 12 14 1 5 -7 9 -9 9 -4 0 5 6 3 14 -3 8 -6 18 -11 22
-9 5 1 19 -3 31 -10 13 -7 23 -10 23 -6 0 3 7 1 15 -6 9 -7 25 -14 38 -15 36
-4 37 -4 37 -19 0 -18 27 -29 36 -14 4 6 3 8 -4 4 -6 -3 -13 -2 -16 3 -4 5 0
8 6 6 38 -9 58 -18 58 -26 0 -13 -14 -11 -28 3 -7 7 -12 9 -12 4 0 -10 23 -30
38 -34 8 -1 11 2 7 8 -3 5 -1 10 5 10 6 0 9 4 6 9 -5 8 10 5 74 -17 8 -3 18
-4 23 -4 4 1 7 -5 7 -14 0 -13 -3 -14 -14 -5 -8 7 -22 13 -32 16 -11 2 -28 6
-39 10 -15 5 -13 2 4 -8 18 -11 20 -16 10 -20 -8 -3 -9 -6 -2 -6 6 -1 15 4 18
9 4 6 18 2 36 -11 16 -11 29 -17 28 -12 -3 19 2 30 16 30 8 0 15 -4 15 -9 0
-4 14 -6 30 -3 17 3 30 1 30 -4 0 -6 -9 -8 -20 -6 -11 2 -20 0 -20 -4 0 -4 16
-8 35 -9 22 -1 35 3 35 11 0 8 3 8 9 -2 5 -8 14 -10 21 -6 9 5 11 4 6 -4 -5
-8 1 -10 23 -6 17 3 31 1 31 -4 0 -6 -8 -8 -18 -6 -11 2 -19 -3 -19 -11 0 -8
4 -14 9 -14 4 0 8 4 8 9 0 6 9 8 20 6 11 -2 18 0 15 5 -3 4 2 7 11 6 17 -3 35
-26 29 -36 -2 -4 2 -7 10 -7 8 0 15 4 15 9 0 4 3 7 8 7 4 -1 9 0 12 1 18 7 39
7 35 0 -3 -5 -1 -11 4 -14 5 -3 12 1 15 10 5 13 9 14 21 4 8 -6 19 -9 24 -6
13 8 30 -24 23 -43 -3 -9 0 -11 7 -6 7 4 10 13 7 20 -8 22 20 25 37 4 10 -11
23 -16 33 -12 10 4 15 2 11 -3 -3 -5 13 -9 38 -9 33 0 41 3 38 15 -2 8 5 -1
16 -20 20 -35 30 -35 11 1 -9 15 -7 19 5 19 10 0 13 -5 9 -12 -5 -7 -3 -8 7
-2 16 10 79 13 94 5 20 -11 40 -10 47 2 6 9 8 9 8 -1 0 -7 4 -11 9 -8 4 3 7
-6 5 -19 -1 -14 2 -25 8 -25 6 0 7 7 4 16 -3 8 -2 12 4 9 6 -3 7 1 4 9 -3 9
-1 16 6 16 6 0 8 -5 4 -12 -5 -8 -2 -9 9 -5 22 8 22 -2 0 -20 -16 -13 -16 -13
5 -3 18 9 27 8 40 -2 15 -11 15 -11 0 8 -17 19 -16 20 10 19 15 -1 36 -6 48
-12 16 -9 27 -9 47 2 15 8 27 10 27 5 0 -4 16 -7 36 -6 20 1 38 -2 40 -6 3 -5
10 -8 15 -8 6 0 8 3 6 8 -3 4 8 7 23 7 16 1 26 -3 24 -7 -6 -10 10 -11 19 -1
9 8 206 10 201 2 -2 -4 6 -14 19 -22 21 -14 23 -13 24 7 1 11 -1 15 -4 8 -3
-6 -9 -10 -14 -6 -19 11 -8 20 24 19 17 0 38 4 46 9 11 8 13 8 7 -2 -5 -8 -1
-11 13 -9 11 2 24 6 27 10 4 4 13 2 21 -4 7 -6 13 -7 13 -2 0 5 15 8 34 8 19
0 32 -3 29 -7 -2 -5 1 -8 6 -8 6 0 11 5 11 12 0 6 7 3 15 -8 14 -19 14 -19 11
1 -3 16 1 20 20 20 13 -1 27 -5 31 -8 9 -9 24 -9 20 1 -3 11 6 14 25 7 10 -4
15 -11 12 -16 -3 -5 -2 -9 3 -8 20 3 34 -2 28 -11 -4 -6 1 -7 11 -3 16 6 16 8
-4 16 -29 13 -34 33 -9 35 17 1 19 -1 7 -8 -13 -8 -13 -10 -1 -10 8 0 24 -8
35 -17 12 -10 18 -14 14 -9 -4 5 -3 15 3 22 8 10 6 12 -10 9 -13 -2 -19 0 -15
6 3 6 15 9 25 6 10 -3 21 -2 24 2 2 5 17 7 32 6 15 -1 31 3 35 9 5 7 8 7 8 -2
0 -7 5 -10 10 -7 6 4 8 10 5 14 -2 5 12 7 32 5 21 -1 42 0 47 4 16 10 46 10
46 0 0 -5 7 -2 16 6 8 9 19 14 24 11 5 -3 10 -2 13 2 2 5 2 2 0 -5 -1 -7 2
-10 7 -7 6 3 10 0 10 -7 0 -10 2 -10 9 1 7 11 10 11 15 0 3 -8 3 -4 0 8 -4 19
-2 22 12 16 13 -5 15 -3 9 7 -5 8 -4 11 3 6 5 -3 12 -1 14 6 3 7 7 5 11 -6 5
-12 3 -15 -6 -10 -7 4 -8 3 -4 -2 10 -10 77 -13 77 -3 0 4 -9 9 -20 12 -12 3
-18 1 -14 -5 4 -6 1 -9 -5 -7 -7 3 -12 9 -12 14 1 12 42 16 56 5 12 -9 46 -9
41 -1 -4 9 31 40 38 34 3 -4 0 -13 -7 -22 -10 -14 -10 -14 5 -3 9 8 15 19 12
26 -8 20 35 16 50 -5 12 -17 14 -18 20 -4 3 9 2 14 -3 11 -10 -7 -23 19 -14
28 4 3 13 0 21 -7 13 -9 14 -9 8 1 -4 6 -2 12 3 12 6 0 11 -8 12 -17 0 -15 2
-15 8 2 5 11 7 22 5 25 -1 3 6 6 17 6 11 0 18 -5 15 -13 -3 -7 1 -10 10 -6 8
3 20 0 27 -6 10 -8 14 -7 14 4 0 8 -4 12 -9 9 -4 -3 -8 0 -8 6 0 6 -4 8 -10 5
-6 -3 -10 -1 -10 5 0 7 7 9 16 6 12 -5 15 -2 10 11 -6 16 -5 16 8 0 12 -15 18
-16 35 -7 12 6 21 7 21 2 0 -5 7 -9 16 -9 15 0 15 2 -1 13 -13 9 -23 10 -36 3
-13 -6 -19 -6 -19 0 0 6 16 13 35 17 19 3 32 10 29 15 -3 5 3 6 12 2 13 -5 15
-3 10 8 -5 9 -3 8 6 -2 13 -15 52 -23 43 -8 -3 3 9 12 25 19 17 7 29 15 26 17
-2 3 -15 0 -28 -7 -20 -10 -21 -10 -6 3 10 8 14 17 11 21 -4 4 5 2 21 -3 21
-9 27 -8 23 1 -4 15 21 38 43 37 11 0 10 -3 -3 -8 -10 -4 -19 -11 -19 -16 0
-6 -4 -18 -9 -27 -5 -9 -5 -19 -1 -22 5 -3 9 1 10 9 1 8 3 22 4 30 1 13 17 19
39 17 4 -1 5 8 2 18 -3 12 0 20 6 20 7 0 9 -4 6 -10 -3 -6 1 -7 9 -4 9 3 14
11 13 17 -1 7 8 12 21 11 14 0 21 5 20 14 -2 8 4 17 12 19 13 4 13 3 0 -6 -12
-8 -12 -11 -1 -11 8 0 11 -6 7 -16 -3 -9 -2 -12 5 -9 6 4 8 13 6 19 -9 22 9
37 44 38 19 1 28 3 21 5 -6 3 -9 9 -6 15 4 6 -4 5 -17 -2 -24 -11 -24 -11 1 9
25 20 36 25 54 22 5 -1 5 6 2 16 -4 9 -4 14 0 11 3 -4 15 3 26 15 19 22 19 22
3 -13 l-16 -35 20 25 c19 23 24 35 23 51 -1 3 6 6 13 6 12 0 12 -3 2 -16 -11
-14 -10 -14 6 -2 13 10 14 17 7 26 -8 10 -8 15 1 21 8 4 9 3 5 -4 -4 -7 -2
-12 3 -12 6 0 11 7 11 15 0 17 34 37 46 27 5 -4 4 -1 -2 7 -9 10 -8 17 7 32
24 24 38 25 16 1 -12 -13 -13 -21 -6 -32 9 -13 10 -12 5 2 -3 10 1 21 11 26
13 8 13 13 2 33 -11 22 -11 23 5 10 9 -8 19 -11 23 -7 3 3 1 6 -5 6 -20 0 -13
18 9 25 12 4 17 10 11 14 -7 4 -6 12 2 23 7 10 16 15 19 11 4 -3 8 -1 8 5 1 7
3 17 4 22 1 6 3 15 4 20 0 6 6 10 12 10 8 0 7 -6 -2 -17 -13 -16 -12 -17 4 -4
11 9 14 18 8 24 -5 5 -7 16 -4 23 6 17 33 19 33 2 0 -6 3 -8 7 -4 5 4 0 13 -9
20 -16 12 -16 14 2 34 23 24 26 37 8 26 -10 -6 -10 -5 -1 7 7 9 14 24 16 35 7
37 27 75 36 69 5 -3 13 0 17 6 5 8 3 9 -6 4 -10 -6 -12 -4 -7 7 3 9 0 21 -6
28 -10 10 -8 12 7 6 15 -5 17 -4 7 8 -9 11 -9 15 1 19 8 3 8 6 2 6 -7 1 -9 13
-6 34 2 17 4 42 4 54 0 13 4 21 8 18 5 -3 12 -1 15 5 4 6 3 10 -2 9 -22 -4
-25 3 -7 17 10 8 13 13 7 9 -9 -4 -13 6 -14 37 0 24 -1 60 -2 81 -1 20 3 37 8
37 6 0 2 5 -8 11 -20 12 -14 31 7 23 8 -3 17 0 22 7 4 7 3 10 -4 6 -23 -15
-39 4 -38 43 1 22 -3 40 -8 40 -6 0 -5 5 2 12 16 16 15 28 -2 28 -8 0 -15 8
-15 18 -1 38 -5 52 -13 52 -5 0 -6 5 -3 10 4 6 0 24 -9 40 -8 17 -11 28 -6 25
4 -3 7 2 6 11 -1 8 -9 19 -16 24 -7 5 -15 16 -17 24 -2 9 -4 23 -6 32 -2 8 -9
19 -16 23 -7 5 -12 10 -10 12 5 9 -13 49 -22 49 -5 0 -9 7 -9 15 0 8 -8 24
-17 34 -39 43 -42 48 -30 60 8 8 4 9 -13 6 -12 -2 -20 -2 -17 2 4 3 -2 17 -13
31 -11 13 -17 28 -14 33 3 5 -2 6 -10 3 -14 -6 -21 5 -17 28 0 4 -6 5 -14 2
-10 -4 -15 0 -15 11 0 9 -4 13 -10 10 -6 -3 -10 1 -10 10 0 9 -4 14 -9 11 -5
-3 -17 6 -27 19 -10 14 -25 25 -32 25 -7 0 -10 5 -7 10 3 6 -1 10 -9 10 -9 0
-16 5 -16 10 0 6 -7 10 -15 10 -8 0 -15 5 -15 10 0 6 -7 10 -15 10 -8 0 -15 4
-15 8 0 5 -12 15 -27 23 -16 8 -34 20 -41 27 -7 6 -20 12 -28 12 -8 0 -14 4
-14 9 0 6 -9 8 -20 6 -11 -2 -18 -1 -16 4 3 4 -11 13 -30 20 -19 7 -32 17 -29
22 3 5 -1 6 -9 3 -8 -3 -34 4 -58 15 -24 11 -65 25 -91 32 -26 6 -45 14 -43
18 2 3 -9 6 -24 7 -15 1 -36 5 -46 9 -11 4 -30 9 -44 10 -14 2 -36 6 -50 10
-14 4 -33 7 -42 7 -10 -1 -18 4 -18 11 0 8 -3 8 -12 -1 -6 -6 -18 -8 -27 -3
-9 5 -34 9 -55 9 -22 1 -43 7 -47 13 -5 8 -8 7 -12 -2 -4 -9 -8 -10 -14 -4
-11 14 -33 17 -33 5 0 -6 -9 -6 -24 0 -15 5 -27 5 -35 -3 -7 -7 -11 -7 -11 0
0 12 -248 12 -268 0 -7 -5 -12 -3 -12 4 0 9 -3 9 -14 0 -10 -9 -16 -9 -21 -1
-5 8 -11 8 -20 0 -7 -5 -39 -12 -71 -14 -33 -3 -59 -5 -59 -6 0 -2 -66 -11
-97 -13 -16 -1 -28 -5 -28 -8 0 -4 -15 -6 -34 -5 -19 1 -32 -2 -30 -5 2 -4
-15 -10 -38 -14 -24 -4 -51 -12 -62 -17 -14 -8 -17 -7 -10 4 6 10 5 11 -8 1
-8 -7 -18 -10 -21 -6 -4 3 -7 1 -7 -6 0 -8 -7 -11 -15 -7 -8 3 -15 1 -15 -4 0
-5 -9 -7 -20 -5 -13 3 -18 0 -14 -7 5 -7 -2 -9 -20 -6 -18 4 -29 1 -33 -8 -3
-8 -9 -14 -15 -14 -5 0 -6 6 -2 13 6 9 5 9 -8 0 -8 -7 -19 -9 -23 -5 -5 4 -5
2 -2 -5 7 -12 -77 -46 -87 -35 -3 3 -6 0 -6 -6 0 -7 -9 -12 -20 -12 -11 0 -20
-3 -20 -8 0 -12 -59 -34 -71 -26 -7 4 -9 3 -5 -4 4 -6 -8 -16 -29 -23 -19 -7
-35 -17 -35 -21 0 -4 -7 -8 -15 -8 -8 0 -15 -4 -15 -10 0 -5 -7 -6 -17 -3 -10
4 -14 2 -10 -4 4 -7 -6 -17 -23 -25 -16 -7 -30 -17 -30 -21 0 -5 -4 -6 -9 -3
-5 3 -12 -1 -15 -10 -4 -10 -12 -14 -23 -10 -10 4 -14 4 -10 0 9 -9 -13 -35
-24 -28 -5 3 -9 -3 -9 -12 0 -10 -3 -15 -6 -11 -3 3 -18 -8 -31 -24 -15 -17
-32 -28 -40 -25 -8 3 -11 1 -8 -4 3 -6 1 -10 -5 -10 -6 0 -8 -4 -5 -10 3 -5
-6 -15 -20 -22 -19 -8 -22 -14 -13 -21 9 -6 7 -7 -8 -4 -12 2 -21 -1 -21 -7 1
-30 -4 -49 -10 -43 -6 7 -38 -31 -38 -45 0 -3 -3 -9 -7 -12 -5 -3 -6 -3 -3 1
3 3 0 12 -6 20 -9 10 -8 13 0 13 7 0 9 5 6 10 -4 6 -10 8 -15 5 -10 -6 -8 15
4 33 4 8 3 11 -5 10 -6 -2 -14 3 -17 11 -3 9 0 11 9 6 8 -5 5 2 -6 15 -11 13
-14 20 -6 15 8 -5 7 2 -4 19 -17 25 -17 26 1 20 14 -5 13 -2 -5 11 -18 14 -20
19 -10 26 10 6 11 9 2 9 -14 0 -18 26 -5 33 4 2 2 2 -5 1 -17 -4 -23 9 -13 26
6 10 3 21 -7 32 -9 10 -12 18 -7 18 5 0 3 4 -5 9 -12 8 -13 12 -1 25 11 14 11
16 -2 11 -8 -3 -15 0 -16 7 0 7 -3 24 -7 38 -3 14 -7 30 -8 35 -2 6 -6 16 -10
23 -5 7 -3 12 5 12 9 0 9 3 2 8 -15 10 -25 64 -10 55 6 -4 5 1 -3 11 -16 20
-21 76 -6 76 6 0 5 4 -2 8 -14 9 -12 44 2 54 6 5 5 8 -4 8 -11 0 -11 3 0 17 8
9 9 14 3 10 -6 -3 -10 5 -10 24 0 16 3 29 8 29 4 0 8 5 8 11 0 5 -4 8 -8 5 -5
-3 -8 7 -6 22 1 15 3 27 4 27 1 0 3 20 5 45 1 24 8 46 14 48 6 2 11 8 11 13 0
6 -4 8 -9 5 -5 -4 -8 2 -6 11 2 10 4 22 4 26 1 5 5 6 10 3 4 -3 6 6 3 20 -3
16 1 30 9 35 8 5 9 9 3 9 -6 0 -11 7 -11 15 0 9 4 11 11 6 8 -6 11 3 12 31 0
21 4 42 10 46 5 4 9 13 10 20 2 28 5 32 19 32 9 0 18 7 21 15 4 8 11 12 18 8
6 -3 6 -1 -1 8 -7 7 -13 20 -13 28 0 14 2 14 11 1 9 -12 10 -11 6 7 -4 16 -1
20 11 16 11 -5 13 -3 7 7 -6 9 -4 11 5 5 10 -6 12 -4 7 8 -4 12 -2 14 10 10
12 -5 15 -2 10 10 -3 9 -3 16 1 15 4 -1 17 3 29 10 16 9 24 9 29 0 5 -7 3 -8
-7 -3 -8 5 -10 4 -6 0 4 -5 14 -10 22 -11 12 -2 12 2 -2 22 -13 21 -13 24 -1
19 9 -4 21 -16 27 -28 11 -22 11 -22 5 2 -5 17 -3 21 6 16 9 -5 11 -4 6 4 -4
6 -12 9 -17 6 -5 -4 -9 -1 -9 5 0 7 8 9 21 5 16 -5 19 -4 14 5 -5 8 -4 11 3 6
6 -3 13 -2 17 4 9 14 28 12 22 -2 -2 -7 -11 -12 -18 -10 -11 3 -12 1 -1 -10 9
-9 15 -10 20 -2 4 6 17 10 29 9 14 -1 19 3 16 12 -4 10 -9 11 -19 2 -10 -8
-14 -8 -14 0 0 11 13 15 39 12 7 -2 10 2 6 9 -6 9 -2 9 14 1 16 -9 21 -9 21 1
0 8 3 9 8 3 10 -14 32 -17 32 -5 0 6 6 5 14 -2 8 -7 11 -17 8 -23 -3 -5 1 -5
9 2 8 6 27 10 41 9 15 -2 25 0 23 5 -3 4 -1 11 5 14 6 4 10 3 9 -2 -3 -20 2
-34 11 -28 6 4 7 11 4 17 -4 6 1 6 14 -1 27 -14 35 -14 26 2 -5 9 -4 9 6 0 7
-6 19 -9 26 -6 8 3 14 0 14 -5 0 -6 -8 -9 -18 -7 -13 2 -18 -3 -18 -19 0 -15
6 -22 19 -22 17 0 17 1 2 12 -9 7 -12 15 -7 18 5 3 12 2 16 -2 7 -7 11 -8 37
-11 5 0 8 -5 5 -9 -3 -5 1 -9 9 -9 8 0 15 4 15 8 0 9 -40 24 -53 21 -5 -1 -6
2 -2 8 4 7 12 7 26 0 10 -6 19 -7 19 -3 0 4 7 -2 16 -13 8 -10 13 -14 10 -7
-4 6 -1 15 5 19 8 4 9 3 5 -4 -6 -11 6 -16 27 -13 11 2 8 -14 -5 -28 -11 -11
-9 -11 9 0 12 7 19 17 16 22 -3 5 8 2 25 -7 16 -8 32 -12 36 -9 3 4 6 1 6 -6
0 -9 8 -11 21 -8 16 4 18 3 8 -9 -14 -17 2 -19 19 -2 7 7 12 8 12 2 0 -6 -4
-14 -10 -20 -6 -6 1 -10 20 -10 17 -1 30 2 30 7 0 4 -9 6 -19 4 -14 -3 -18 1
-14 12 4 10 8 11 13 3 4 -6 10 -11 14 -11 20 3 26 0 21 -9 -3 -5 -2 -10 4 -10
5 0 13 5 16 10 5 8 11 7 20 0 8 -7 19 -9 25 -5 6 4 9 1 8 -6 -2 -6 3 -14 10
-16 8 -3 10 1 6 11 -3 9 -1 16 6 16 6 0 8 -4 5 -10 -3 -5 -2 -10 4 -10 6 0 8
-8 5 -17 -4 -10 2 -7 12 7 20 27 30 30 52 16 12 -7 12 -4 2 15 l-13 24 24 -20
c13 -11 19 -14 13 -6 -7 7 -9 22 -6 33 4 15 7 17 13 6 6 -9 9 -7 9 10 0 13 6
22 15 22 8 0 15 5 15 11 0 5 -6 7 -12 3 -10 -6 -10 -4 0 8 7 9 15 29 18 44 3
16 8 31 12 34 14 10 5 85 -13 106 -5 6 -17 21 -25 33 -8 11 -37 44 -64 73 -28
29 -44 44 -36 33 14 -20 14 -20 -6 -1 -13 13 -15 20 -6 23 6 3 12 9 12 14 0 6
-4 7 -10 4 -16 -10 -11 7 13 42 14 21 28 32 39 29 10 -2 15 1 12 8 -2 6 14 31
37 54 33 35 43 41 55 31 10 -8 14 -8 14 0 0 6 -4 11 -10 11 -5 0 -10 5 -10 11
0 6 7 9 15 6 8 -4 17 -1 21 5 4 6 3 8 -4 4 -6 -3 -13 -2 -17 4 -3 5 -1 10 5
10 6 0 8 6 4 13 -6 10 -4 10 7 0 17 -17 26 -16 26 2 0 8 -4 12 -9 9 -11 -7
-10 0 4 31 6 14 15 25 20 25 4 0 8 7 8 16 0 8 5 12 10 9 6 -3 10 -1 10 4 0 6
-5 11 -11 11 -6 0 -1 9 12 20 14 12 18 19 9 18 -11 -2 -14 5 -12 25 2 15 -1
27 -8 27 -8 0 -8 6 0 20 8 16 8 18 -4 14 -8 -3 -17 0 -22 7 -5 8 -3 10 7 4 8
-5 1 4 -14 18 -15 15 -25 32 -22 37 3 6 -1 10 -10 10 -11 0 -15 5 -11 15 3 8
2 14 -2 14 -18 -3 -32 2 -32 11 0 6 -18 28 -40 49 -22 21 -40 44 -40 51 0 7
-3 11 -6 7 -3 -3 -26 14 -51 39 -25 24 -49 44 -54 44 -5 0 -9 7 -9 15 0 8 -5
15 -11 15 -14 0 -49 39 -49 54 0 6 -4 5 -9 -3 -7 -11 -10 -9 -16 8 -3 12 -11
18 -17 15 -7 -5 -9 -1 -5 9 4 11 2 14 -8 10 -8 -3 -18 2 -21 11 -3 9 -10 13
-15 10 -5 -3 -9 0 -9 6 0 6 -5 8 -12 4 -7 -4 -8 -3 -4 4 4 7 -7 18 -26 28 -36
18 -50 33 -42 46 3 4 -2 5 -11 2 -9 -4 -23 2 -35 15 -10 12 -22 22 -27 23 -4
0 -7 3 -6 7 1 4 -8 8 -20 8 -12 1 -26 8 -32 16 -5 7 -18 16 -27 20 -10 3 -18
11 -18 17 0 6 -4 9 -9 5 -5 -3 -16 1 -24 9 -8 8 -17 13 -19 10 -3 -2 -11 2
-18 11 -7 8 -21 15 -31 15 -11 0 -19 5 -19 12 0 6 -3 8 -6 5 -9 -9 -46 12 -40
22 3 4 -6 6 -19 3 -14 -2 -25 0 -25 7 0 5 -7 8 -15 5 -8 -4 -15 -1 -15 5 0 6
-6 8 -14 5 -8 -3 -23 -1 -33 4 -10 5 -37 5 -62 1z m249 -1555 c0 -8 -19 -13
-24 -6 -3 5 1 9 9 9 8 0 15 -2 15 -3z m-416 -199 c-4 -8 -10 -15 -15 -15 -4 0
-6 7 -3 15 4 8 10 15 15 15 4 0 6 -7 3 -15z m-39 -945 c3 -5 1 -10 -4 -10 -6
0 -11 5 -11 10 0 6 2 10 4 10 3 0 8 -4 11 -10z m-1160 -1889 c-3 -6 -11 -8
-17 -5 -6 4 -5 9 3 15 16 10 23 4 14 -10z m292 -6 c0 -8 -4 -12 -9 -9 -5 3 -6
10 -3 15 9 13 12 11 12 -6z m3255 -37 c-7 -7 -12 -8 -12 -2 0 14 12 26 19 19
2 -3 -1 -11 -7 -17z m-388 -129 c4 6 12 11 19 11 12 0 -23 -29 -35 -30 -5 0
-8 8 -8 18 0 13 2 14 9 3 6 -9 11 -10 15 -2z m-2064 -39 c0 -5 -4 -10 -10 -10
-5 0 -10 5 -10 10 0 6 5 10 10 10 6 0 10 -4 10 -10z m220 -41 c0 -6 -4 -7 -10
-4 -5 3 -10 11 -10 16 0 6 5 7 10 4 6 -3 10 -11 10 -16z m40 -1 c0 -4 5 -8 11
-8 5 0 7 4 4 10 -4 6 1 7 11 3 15 -5 15 -7 0 -15 -10 -5 -23 -5 -36 2 -24 13
-25 17 -5 17 8 0 15 -4 15 -9z m440 -34 c0 -8 -19 -13 -24 -6 -3 5 1 9 9 9 8
0 15 -2 15 -3z"/>
<path d="M2906 4422 c-3 -5 1 -9 9 -9 8 0 12 4 9 9 -3 4 -7 8 -9 8 -2 0 -6 -4
-9 -8z"/>
<path d="M3055 4059 c-4 -6 -5 -12 -2 -15 2 -3 7 2 10 11 7 17 1 20 -8 4z"/>
<path d="M3030 4041 c0 -6 4 -13 10 -16 6 -3 7 1 4 9 -7 18 -14 21 -14 7z"/>
<path d="M2921 3896 c-20 -21 -29 -36 -22 -40 11 -7 12 -6 15 15 0 6 15 22 31
35 17 13 25 24 19 24 -5 0 -25 -15 -43 -34z"/>
<path d="M2855 3829 c-4 -6 -5 -12 -2 -15 2 -3 7 2 10 11 7 17 1 20 -8 4z"/>
<path d="M2875 3820 c-3 -6 1 -7 9 -4 18 7 21 14 7 14 -6 0 -13 -4 -16 -10z"/>
<path d="M2830 3800 c0 -5 5 -10 11 -10 5 0 7 5 4 10 -3 6 -8 10 -11 10 -2 0
-4 -4 -4 -10z"/>
<path d="M2847 3759 c7 -7 15 -10 18 -7 3 3 -2 9 -12 12 -14 6 -15 5 -6 -5z"/>
<path d="M2980 3480 c-9 -6 -10 -10 -3 -10 6 0 15 5 18 10 8 12 4 12 -15 0z"/>
<path d="M2110 3417 c0 -6 3 -7 7 -4 3 4 12 -1 20 -11 12 -16 13 -16 7 1 -5
13 -2 16 10 11 9 -3 16 -2 16 3 0 4 -13 9 -30 9 -16 1 -30 -3 -30 -9z"/>
<path d="M2309 3402 c-13 -15 -12 -16 3 -4 14 11 17 10 21 -5 4 -16 5 -16 6
-1 2 25 -15 30 -30 10z"/>
<path d="M2250 3399 c0 -5 5 -7 10 -4 6 3 10 8 10 11 0 2 -4 4 -10 4 -5 0 -10
-5 -10 -11z"/>
<path d="M2010 3380 c0 -5 5 -10 11 -10 5 0 7 5 4 10 -3 6 -8 10 -11 10 -2 0
-4 -4 -4 -10z"/>
<path d="M2955 3380 c-3 -5 -1 -10 4 -10 6 0 11 5 11 10 0 6 -2 10 -4 10 -3 0
-8 -4 -11 -10z"/>
<path d="M2475 3369 c-4 -6 -5 -12 -2 -15 2 -3 7 2 10 11 7 17 1 20 -8 4z"/>
<path d="M2519 3353 c-10 -14 -10 -15 0 -7 23 21 57 3 52 -28 -2 -13 6 -9 20
10 7 9 10 14 5 10 -4 -3 -16 2 -27 13 -24 24 -33 24 -50 2z"/>
<path d="M1916 3347 c3 -10 9 -15 12 -12 3 3 0 11 -7 18 -10 9 -11 8 -5 -6z"/>
<path d="M2935 3349 c-4 -6 -5 -12 -2 -15 2 -3 7 2 10 11 7 17 1 20 -8 4z"/>
<path d="M1900 3333 c0 -6 8 -17 18 -24 16 -13 16 -13 2 6 -8 11 -16 22 -17
24 -2 2 -3 0 -3 -6z"/>
<path d="M2736 3307 c3 -9 10 -17 16 -17 5 0 7 -4 3 -9 -3 -5 -2 -12 3 -15 17
-10 8 24 -10 41 -18 16 -18 16 -12 0z"/>
<path d="M2690 3293 c0 -1 8 -7 18 -12 13 -7 19 -6 19 2 0 7 -9 13 -19 13 -10
0 -18 -1 -18 -3z"/>
<path d="M2846 3287 c-16 -12 -16 -13 2 -13 10 0 19 6 19 13 0 7 -1 13 -2 13
-1 0 -9 -6 -19 -13z"/>
<path d="M1850 3281 c0 -6 4 -13 10 -16 6 -3 7 1 4 9 -7 18 -14 21 -14 7z"/>
<path d="M1785 3200 c-3 -6 1 -7 9 -4 18 7 21 14 7 14 -6 0 -13 -4 -16 -10z"/>
<path d="M1710 2830 c-9 -6 -10 -10 -3 -10 6 0 15 5 18 10 8 12 4 12 -15 0z"/>
<path d="M1840 2066 c0 -2 7 -7 16 -10 8 -3 12 -2 9 4 -6 10 -25 14 -25 6z"/>
<path d="M4905 1261 c-3 -5 0 -13 6 -17 7 -4 9 -3 5 4 -3 5 0 13 6 15 9 4 10
6 1 6 -6 1 -14 -3 -18 -8z"/>
<path d="M4871 1096 c-8 -10 -9 -16 -1 -21 5 -3 10 -5 11 -3 4 18 7 38 4 38
-1 0 -8 -6 -14 -14z"/>
<path d="M190 1076 c0 -2 8 -10 18 -17 15 -13 16 -12 3 4 -13 16 -21 21 -21
13z"/>
<path d="M4865 1040 c3 -5 8 -10 11 -10 2 0 4 5 4 10 0 6 -5 10 -11 10 -5 0
-7 -4 -4 -10z"/>
<path d="M4835 980 c3 -5 8 -10 11 -10 2 0 4 5 4 10 0 6 -5 10 -11 10 -5 0 -7
-4 -4 -10z"/>
<path d="M4805 940 c-3 -5 -1 -10 4 -10 6 0 11 5 11 10 0 6 -2 10 -4 10 -3 0
-8 -4 -11 -10z"/>
<path d="M4754 842 c4 -3 14 -7 22 -8 9 -1 13 0 10 4 -4 3 -14 7 -22 8 -9 1
-13 0 -10 -4z"/>
<path d="M4745 800 c3 -5 11 -10 16 -10 6 0 7 5 4 10 -3 6 -11 10 -16 10 -6 0
-7 -4 -4 -10z"/>
<path d="M4650 691 c0 -7 -4 -10 -8 -7 -5 3 -9 -2 -9 -10 0 -13 2 -13 16 0 8
9 12 19 8 22 -4 4 -7 2 -7 -5z"/>
<path d="M196 638 c3 -5 10 -6 15 -3 13 9 11 12 -6 12 -8 0 -12 -4 -9 -9z"/>
<path d="M4490 562 c0 -5 7 -9 15 -9 8 0 12 4 9 9 -3 4 -9 8 -15 8 -5 0 -9 -4
-9 -8z"/>
<path d="M235 540 c-3 -5 -1 -10 4 -10 6 0 11 5 11 10 0 6 -2 10 -4 10 -3 0
-8 -4 -11 -10z"/>
<path d="M250 506 c0 -2 7 -7 16 -10 8 -3 12 -2 9 4 -6 10 -25 14 -25 6z"/>
<path d="M307 487 c-3 -8 1 -14 8 -14 7 0 11 6 8 14 -3 7 -6 13 -8 13 -2 0 -5
-6 -8 -13z"/>
<path d="M346 481 c-3 -5 1 -14 9 -21 12 -10 15 -10 15 1 0 11 3 11 11 -1 9
-13 10 -13 6 0 -2 8 -12 14 -22 12 -10 -2 -14 1 -10 7 3 6 4 11 1 11 -3 0 -7
-4 -10 -9z"/>
<path d="M4361 473 c-1 -17 16 -25 25 -12 4 7 3 9 -4 5 -5 -3 -13 0 -15 6 -4
9 -6 10 -6 1z"/>
<path d="M421 453 c14 -24 34 -30 44 -14 3 5 0 13 -6 17 -8 4 -9 3 -5 -4 11
-18 -5 -14 -27 6 -19 17 -19 16 -6 -5z"/>
<path d="M396 442 c-3 -5 1 -9 9 -9 8 0 12 4 9 9 -3 4 -7 8 -9 8 -2 0 -6 -4
-9 -8z"/>
<path d="M4335 439 c-11 -16 -1 -19 13 -3 7 8 8 14 3 14 -5 0 -13 -5 -16 -11z"/>
<path d="M513 427 c-3 -4 -2 -11 1 -14 3 -4 6 0 6 8 0 11 2 11 10 -1 8 -13 11
-13 25 1 14 14 13 15 -11 15 -14 0 -28 -4 -31 -9z"/>
<path d="M771 394 c0 -11 3 -14 6 -6 3 7 2 16 -1 19 -3 4 -6 -2 -5 -13z"/>
<path d="M802 398 c-7 -7 -12 -16 -12 -21 0 -5 7 -1 16 8 9 9 14 18 12 20 -2
3 -10 -1 -16 -7z"/>
<path d="M955 390 c3 -5 8 -10 11 -10 2 0 4 5 4 10 0 6 -5 10 -11 10 -5 0 -7
-4 -4 -10z"/>
<path d="M730 380 c0 -5 5 -10 11 -10 5 0 7 5 4 10 -3 6 -8 10 -11 10 -2 0 -4
-4 -4 -10z"/>
<path d="M1064 369 c-8 -14 10 -26 39 -24 23 2 36 -7 55 -40 12 -19 12 -19 10
-1 -2 10 3 21 11 24 8 3 11 0 7 -7 -4 -6 -2 -11 4 -11 7 0 10 6 7 13 -2 6 -13
12 -24 12 -11 0 -27 6 -36 14 -10 7 -17 10 -17 6 0 -4 -11 0 -24 9 -17 11 -27
12 -32 5z"/>
<path d="M1035 351 c-3 -5 -2 -12 3 -15 5 -3 9 1 9 9 0 17 -3 19 -12 6z"/>
<path d="M4110 339 c0 -5 4 -8 9 -4 6 3 14 -3 20 -12 6 -10 11 -13 11 -7 0 12
-20 34 -32 34 -4 0 -8 -5 -8 -11z"/>
<path d="M4055 301 c-3 -5 -2 -12 3 -15 5 -3 9 1 9 9 0 17 -3 19 -12 6z"/>
<path d="M1235 270 c10 -11 20 -20 23 -20 3 0 -3 9 -13 20 -10 11 -20 20 -23
20 -3 0 3 -9 13 -20z"/>
<path d="M3950 260 c0 -5 7 -7 15 -4 8 4 15 8 15 10 0 2 -7 4 -15 4 -8 0 -15
-4 -15 -10z"/>
<path d="M1430 242 c0 -5 7 -9 15 -9 8 0 12 4 9 9 -3 4 -9 8 -15 8 -5 0 -9 -4
-9 -8z"/>
<path d="M3855 240 c3 -5 8 -10 11 -10 2 0 4 5 4 10 0 6 -5 10 -11 10 -5 0 -7
-4 -4 -10z"/>
<path d="M1534 218 c-4 -7 -4 -10 1 -6 4 4 16 3 26 -3 11 -5 19 -7 19 -5 0 3
-9 10 -19 16 -15 7 -22 7 -27 -2z"/>
<path d="M1656 195 c-3 -8 -1 -15 4 -15 6 0 10 7 10 15 0 8 -2 15 -4 15 -2 0
-6 -7 -10 -15z"/>
<path d="M3800 200 c-9 -6 -10 -10 -3 -10 6 0 15 5 18 10 8 12 4 12 -15 0z"/>
<path d="M1553 185 c0 -8 4 -12 9 -9 5 3 6 10 3 15 -9 13 -12 11 -12 -6z"/>
<path d="M1744 182 c3 -5 0 -13 -6 -15 -9 -4 -10 -6 -1 -6 17 -1 25 16 12 25
-7 4 -9 3 -5 -4z"/>
<path d="M1790 174 c0 -8 5 -12 10 -9 6 4 8 11 5 16 -9 14 -15 11 -15 -7z"/>
<path d="M3551 172 c-7 -14 -6 -19 3 -19 6 0 13 9 13 19 2 23 -4 23 -16 0z"/>
<path d="M3640 186 c0 -2 7 -7 16 -10 8 -3 12 -2 9 4 -6 10 -25 14 -25 6z"/>
<path d="M1819 163 c-8 -9 -9 -14 -2 -10 6 4 13 1 16 -5 3 -7 4 -3 4 10 -1 26
-1 26 -18 5z"/>
<path d="M3484 165 c-5 -12 -10 -12 -27 -3 -16 8 -22 8 -25 -1 -2 -6 -8 -9
-13 -6 -5 4 -6 -1 -2 -11 5 -15 7 -15 15 0 5 9 13 14 19 11 24 -15 45 -12 45
6 0 23 -5 24 -12 4z"/>
<path d="M3510 160 c0 -5 5 -10 11 -10 5 0 7 5 4 10 -3 6 -8 10 -11 10 -2 0
-4 -4 -4 -10z"/>
<path d="M3325 142 c3 -3 -3 -11 -13 -19 -15 -13 -15 -13 5 -4 12 6 29 8 37 5
9 -3 16 -1 16 6 0 6 -4 8 -10 5 -5 -3 -10 -2 -10 3 0 5 -7 9 -15 9 -8 0 -13
-3 -10 -5z"/>
<path d="M3384 129 c0 -13 3 -15 13 -7 7 6 13 12 13 13 0 2 -6 5 -13 8 -7 3
-13 -3 -13 -14z"/>
<path d="M1898 128 c5 -5 16 -8 23 -6 8 3 3 7 -10 11 -17 4 -21 3 -13 -5z"/>
<path d="M2086 127 c3 -10 9 -15 12 -12 3 3 0 11 -7 18 -10 9 -11 8 -5 -6z"/>
<path d="M2113 116 c-2 -19 -1 -19 8 -3 10 17 29 15 29 -4 0 -6 -5 -7 -12 -3
-7 5 -8 3 -3 -5 5 -9 10 -10 18 -2 7 7 15 7 26 -2 12 -9 11 -6 -2 13 -22 31
-62 35 -64 6z"/>
<path d="M3174 114 c-1 -13 1 -24 5 -24 9 0 12 38 3 44 -4 2 -8 -7 -8 -20z"/>
<path d="M1996 122 c-3 -5 1 -9 9 -9 8 0 12 4 9 9 -3 4 -7 8 -9 8 -2 0 -6 -4
-9 -8z"/>
<path d="M2186 118 c7 -10 34 -10 34 0 0 4 -9 8 -19 8 -11 0 -17 -4 -15 -8z"/>
<path d="M3130 121 c0 -10 19 -25 25 -20 1 2 -3 10 -11 17 -8 7 -14 8 -14 3z"/>
<path d="M2337 103 c3 -7 15 -12 27 -12 17 1 17 2 3 6 -9 2 -15 8 -13 12 3 4
-1 8 -8 8 -8 0 -12 -6 -9 -14z"/>
<path d="M2955 110 c-4 -6 -10 -8 -14 -5 -5 2 -17 -5 -27 -18 -19 -22 -19 -22
2 -5 16 14 23 15 33 5 7 -6 12 -7 11 -2 -5 22 1 29 10 15 6 -9 10 -10 10 -3 0
16 -17 26 -25 13z"/>
<path d="M3003 113 c-7 -2 -13 -9 -13 -14 0 -6 4 -8 9 -4 5 3 12 -3 14 -12 3
-10 4 -6 4 10 -1 15 -2 27 -2 26 0 0 -6 -3 -12 -6z"/>
<path d="M3113 101 c0 -11 5 -18 9 -15 4 3 5 11 1 19 -7 21 -12 19 -10 -4z"/>
<path d="M2430 100 c0 -6 5 -8 10 -5 6 3 10 -2 11 -12 0 -17 1 -17 8 1 7 17 8
17 24 2 9 -10 17 -13 17 -7 0 13 -14 21 -45 27 -14 2 -25 0 -25 -6z"/>
<path d="M2510 100 c0 -5 5 -10 11 -10 5 0 7 5 4 10 -3 6 -8 10 -11 10 -2 0
-4 -4 -4 -10z"/>
<path d="M2570 102 c0 -6 -8 -13 -17 -15 -16 -4 -16 -5 -1 -6 18 -1 34 16 24
26 -3 4 -6 1 -6 -5z"/>
<path d="M2626 98 c3 -4 0 -8 -6 -8 -6 0 -8 -5 -4 -11 4 -8 9 -7 15 2 5 8 9
10 9 4 0 -5 5 -3 10 5 7 12 11 10 19 -10 6 -17 10 -19 10 -8 1 9 -5 20 -11 24
-17 11 -48 12 -42 2z"/>
<path d="M2690 103 c0 -4 5 -15 10 -23 8 -13 10 -13 10 2 0 9 -4 20 -10 23 -5
3 -10 3 -10 -2z"/>
<path d="M2723 97 c0 -7 9 -13 19 -13 10 0 18 1 18 3 0 1 -8 7 -18 12 -13 7
-19 6 -19 -2z"/>
<path d="M2779 109 c-6 -31 -6 -39 2 -39 5 0 9 6 9 13 0 8 4 7 10 -3 5 -8 10
-10 10 -4 0 11 -29 41 -31 33z"/>
<path d="M2870 105 c0 -7 30 -13 34 -7 3 4 -4 9 -15 9 -10 1 -19 0 -19 -2z"/>
<path d="M3030 100 c0 -5 5 -10 11 -10 5 0 7 5 4 10 -3 6 -8 10 -11 10 -2 0
-4 -4 -4 -10z"/>
<path d="M2280 85 c0 -2 6 -8 13 -14 10 -8 14 -7 14 2 0 8 -6 14 -14 14 -7 0
-13 -1 -13 -2z"/>
<path d="M2386 82 c-3 -5 1 -9 9 -9 8 0 12 4 9 9 -3 4 -7 8 -9 8 -2 0 -6 -4
-9 -8z"/>
<path d="M2870 80 c0 -5 5 -10 11 -10 5 0 7 5 4 10 -3 6 -8 10 -11 10 -2 0 -4
-4 -4 -10z"/>
<path d="M3080 80 c-9 -6 -10 -10 -3 -10 6 0 15 5 18 10 8 12 4 12 -15 0z"/>
</g>
</svg>
